{
	"asset":{
		"generator":"Khronos glTF Blender I/O v4.1.62",
		"version":"2.0"
	},
	"scene":0,
	"scenes":[
		{
			"name":"Scene",
			"nodes":[
				0,
				1,
				2,
				3,
				4,
				5,
				6,
				7,
				8,
				9,
				10,
				11,
				12
			]
		}
	],
	"nodes":[
		{
			"mesh":0,
			"name":"Cube",
			"scale":[
				5.204606533050537,
				1,
				4.033473968505859
			],
			"translation":[
				-1.4417903423309326,
				0,
				0.3691444396972656
			]
		},
		{
			"mesh":1,
			"name":"2",
			"translation":[
				-4.926183700561523,
				1.1956796646118164,
				0.3626525402069092
			]
		},
		{
			"mesh":2,
			"name":"6",
			"translation":[
				-2.6184635162353516,
				1.1956796646118164,
				-1.9103901386260986
			]
		},
		{
			"mesh":3,
			"name":"7",
			"translation":[
				-0.3251555860042572,
				1.1956796646118164,
				2.629396915435791
			]
		},
		{
			"mesh":4,
			"name":"9",
			"translation":[
				-0.3251555860042572,
				1.1956796646118164,
				-1.9103901386260986
			]
		},
		{
			"mesh":5,
			"name":"8",
			"translation":[
				-0.3251555860042572,
				1.1956796646118164,
				0.3626525402069092
			]
		},
		{
			"mesh":6,
			"name":"0",
			"translation":[
				1.9667211771011353,
				1.1956796646118164,
				0.3626525402069092
			]
		},
		{
			"mesh":7,
			"name":"enter",
			"translation":[
				1.9667211771011353,
				1.1956796646118164,
				-1.9103901386260986
			]
		},
		{
			"mesh":8,
			"name":".",
			"translation":[
				1.9667211771011353,
				1.1956796646118164,
				2.629396915435791
			]
		},
		{
			"mesh":9,
			"name":"1",
			"scale":[
				0.7450068593025208,
				1.3203812837600708,
				1.4281110763549805
			],
			"translation":[
				-4.570587158203125,
				1.4012446403503418,
				2.6407268047332764
			]
		},
		{
			"mesh":10,
			"name":"5",
			"rotation":[
				1,
				0,
				0,
				0
			],
			"scale":[
				-1,
				-1,
				-1.2377846240997314
			],
			"translation":[
				-2.310136556625366,
				1.4003705978393555,
				0.3891458213329315
			]
		},
		{
			"mesh":11,
			"name":"3",
			"translation":[
				-5.242137908935547,
				1.4006378650665283,
				-1.897739291191101
			]
		},
		{
			"mesh":12,
			"name":"4",
			"scale":[
				1.6651813983917236,
				1,
				1
			],
			"translation":[
				-2.6505727767944336,
				1.4013266563415527,
				2.3505897521972656
			]
		}
	],
	"materials":[
		{
			"doubleSided":true,
			"name":"Material",
			"pbrMetallicRoughness":{
				"baseColorFactor":[
					0.800000011920929,
					0.800000011920929,
					0.800000011920929,
					1
				],
				"metallicFactor":0,
				"roughnessFactor":0.5
			}
		}
	],
	"meshes":[
		{
			"name":"Cube",
			"primitives":[
				{
					"attributes":{
						"POSITION":0,
						"NORMAL":1,
						"TEXCOORD_0":2
					},
					"indices":3,
					"material":0
				}
			]
		},
		{
			"name":"Cube.001",
			"primitives":[
				{
					"attributes":{
						"POSITION":4,
						"NORMAL":5,
						"TEXCOORD_0":6
					},
					"indices":7
				}
			]
		},
		{
			"name":"Cube.009",
			"primitives":[
				{
					"attributes":{
						"POSITION":8,
						"NORMAL":9,
						"TEXCOORD_0":10
					},
					"indices":11
				}
			]
		},
		{
			"name":"Cube.013",
			"primitives":[
				{
					"attributes":{
						"POSITION":12,
						"NORMAL":13,
						"TEXCOORD_0":14
					},
					"indices":15
				}
			]
		},
		{
			"name":"Cube.014",
			"primitives":[
				{
					"attributes":{
						"POSITION":16,
						"NORMAL":17,
						"TEXCOORD_0":18
					},
					"indices":11
				}
			]
		},
		{
			"name":"Cube.015",
			"primitives":[
				{
					"attributes":{
						"POSITION":19,
						"NORMAL":20,
						"TEXCOORD_0":21
					},
					"indices":22
				}
			]
		},
		{
			"name":"Cube.016",
			"primitives":[
				{
					"attributes":{
						"POSITION":23,
						"NORMAL":24,
						"TEXCOORD_0":25
					},
					"indices":26
				}
			]
		},
		{
			"name":"Cube.017",
			"primitives":[
				{
					"attributes":{
						"POSITION":27,
						"NORMAL":28,
						"TEXCOORD_0":29
					},
					"indices":30
				}
			]
		},
		{
			"name":"Cube.018",
			"primitives":[
				{
					"attributes":{
						"POSITION":31,
						"NORMAL":32,
						"TEXCOORD_0":33
					},
					"indices":34
				}
			]
		},
		{
			"name":"Cube.024",
			"primitives":[
				{
					"attributes":{
						"POSITION":35,
						"NORMAL":36,
						"TEXCOORD_0":37
					},
					"indices":38
				}
			]
		},
		{
			"name":"Cube.034",
			"primitives":[
				{
					"attributes":{
						"POSITION":39,
						"NORMAL":40,
						"TEXCOORD_0":41
					},
					"indices":42
				}
			]
		},
		{
			"name":"Cube.038",
			"primitives":[
				{
					"attributes":{
						"POSITION":43,
						"NORMAL":44,
						"TEXCOORD_0":45
					},
					"indices":46
				}
			]
		},
		{
			"name":"Cube.043",
			"primitives":[
				{
					"attributes":{
						"POSITION":47,
						"NORMAL":48,
						"TEXCOORD_0":49
					},
					"indices":50
				}
			]
		}
	],
	"accessors":[
		{
			"bufferView":0,
			"componentType":5126,
			"count":40,
			"max":[
				1,
				1,
				1
			],
			"min":[
				-1,
				-1,
				-1
			],
			"type":"VEC3"
		},
		{
			"bufferView":1,
			"componentType":5126,
			"count":40,
			"type":"VEC3"
		},
		{
			"bufferView":2,
			"componentType":5126,
			"count":40,
			"type":"VEC2"
		},
		{
			"bufferView":3,
			"componentType":5123,
			"count":60,
			"type":"SCALAR"
		},
		{
			"bufferView":4,
			"componentType":5126,
			"count":160,
			"max":[
				0.8825101852416992,
				0.2210974097251892,
				0.8538440465927124
			],
			"min":[
				-0.8825101852416992,
				-0.1956791877746582,
				-0.8538440465927124
			],
			"type":"VEC3"
		},
		{
			"bufferView":5,
			"componentType":5126,
			"count":160,
			"type":"VEC3"
		},
		{
			"bufferView":6,
			"componentType":5126,
			"count":160,
			"type":"VEC2"
		},
		{
			"bufferView":7,
			"componentType":5123,
			"count":240,
			"type":"SCALAR"
		},
		{
			"bufferView":8,
			"componentType":5126,
			"count":160,
			"max":[
				0.8825101852416992,
				0.2205343246459961,
				0.8538440465927124
			],
			"min":[
				-0.8825101852416992,
				-0.1956791877746582,
				-0.8538440465927124
			],
			"type":"VEC3"
		},
		{
			"bufferView":9,
			"componentType":5126,
			"count":160,
			"type":"VEC3"
		},
		{
			"bufferView":10,
			"componentType":5126,
			"count":160,
			"type":"VEC2"
		},
		{
			"bufferView":11,
			"componentType":5123,
			"count":240,
			"type":"SCALAR"
		},
		{
			"bufferView":12,
			"componentType":5126,
			"count":88,
			"max":[
				0.8825101852416992,
				0.22024953365325928,
				0.8538440465927124
			],
			"min":[
				-0.8825101852416992,
				-0.1956791877746582,
				-0.8538440465927124
			],
			"type":"VEC3"
		},
		{
			"bufferView":13,
			"componentType":5126,
			"count":88,
			"type":"VEC3"
		},
		{
			"bufferView":14,
			"componentType":5126,
			"count":88,
			"type":"VEC2"
		},
		{
			"bufferView":15,
			"componentType":5123,
			"count":132,
			"type":"SCALAR"
		},
		{
			"bufferView":16,
			"componentType":5126,
			"count":160,
			"max":[
				0.8825101852416992,
				0.2210637331008911,
				0.8538440465927124
			],
			"min":[
				-0.8825101852416992,
				-0.1956791877746582,
				-0.8538440465927124
			],
			"type":"VEC3"
		},
		{
			"bufferView":17,
			"componentType":5126,
			"count":160,
			"type":"VEC3"
		},
		{
			"bufferView":18,
			"componentType":5126,
			"count":160,
			"type":"VEC2"
		},
		{
			"bufferView":19,
			"componentType":5126,
			"count":160,
			"max":[
				0.8825101852416992,
				0.22008144855499268,
				0.8538440465927124
			],
			"min":[
				-0.8825101852416992,
				-0.1956791877746582,
				-0.8538440465927124
			],
			"type":"VEC3"
		},
		{
			"bufferView":20,
			"componentType":5126,
			"count":160,
			"type":"VEC3"
		},
		{
			"bufferView":21,
			"componentType":5126,
			"count":160,
			"type":"VEC2"
		},
		{
			"bufferView":22,
			"componentType":5123,
			"count":240,
			"type":"SCALAR"
		},
		{
			"bufferView":23,
			"componentType":5126,
			"count":136,
			"max":[
				0.8825101852416992,
				0.22028082609176636,
				0.8538440465927124
			],
			"min":[
				-0.8825101852416992,
				-0.1956791877746582,
				-0.8538440465927124
			],
			"type":"VEC3"
		},
		{
			"bufferView":24,
			"componentType":5126,
			"count":136,
			"type":"VEC3"
		},
		{
			"bufferView":25,
			"componentType":5126,
			"count":136,
			"type":"VEC2"
		},
		{
			"bufferView":26,
			"componentType":5123,
			"count":204,
			"type":"SCALAR"
		},
		{
			"bufferView":27,
			"componentType":5126,
			"count":112,
			"max":[
				0.8825101852416992,
				0.23902909457683563,
				0.8538440465927124
			],
			"min":[
				-0.8825101852416992,
				-0.1956791877746582,
				-0.8538440465927124
			],
			"type":"VEC3"
		},
		{
			"bufferView":28,
			"componentType":5126,
			"count":112,
			"type":"VEC3"
		},
		{
			"bufferView":29,
			"componentType":5126,
			"count":112,
			"type":"VEC2"
		},
		{
			"bufferView":30,
			"componentType":5123,
			"count":168,
			"type":"SCALAR"
		},
		{
			"bufferView":31,
			"componentType":5126,
			"count":64,
			"max":[
				0.8825101852416992,
				0.2029341459274292,
				0.8538440465927124
			],
			"min":[
				-0.8825101852416992,
				-0.1956791877746582,
				-0.8538440465927124
			],
			"type":"VEC3"
		},
		{
			"bufferView":32,
			"componentType":5126,
			"count":64,
			"type":"VEC3"
		},
		{
			"bufferView":33,
			"componentType":5126,
			"count":64,
			"type":"VEC2"
		},
		{
			"bufferView":34,
			"componentType":5123,
			"count":96,
			"type":"SCALAR"
		},
		{
			"bufferView":35,
			"componentType":5126,
			"count":112,
			"max":[
				0.7072604894638062,
				0.011787300929427147,
				0.5899500250816345
			],
			"min":[
				-1.6618722677230835,
				-0.3038851022720337,
				-0.6058170199394226
			],
			"type":"VEC3"
		},
		{
			"bufferView":36,
			"componentType":5126,
			"count":112,
			"type":"VEC3"
		},
		{
			"bufferView":37,
			"componentType":5126,
			"count":112,
			"type":"VEC2"
		},
		{
			"bufferView":38,
			"componentType":5123,
			"count":168,
			"type":"SCALAR"
		},
		{
			"bufferView":39,
			"componentType":5126,
			"count":160,
			"max":[
				1.1908371448516846,
				0.015079200267791748,
				0.6684125661849976
			],
			"min":[
				-0.5741832256317139,
				-0.40037012100219727,
				-0.7112201452255249
			],
			"type":"VEC3"
		},
		{
			"bufferView":40,
			"componentType":5126,
			"count":160,
			"type":"VEC3"
		},
		{
			"bufferView":41,
			"componentType":5126,
			"count":160,
			"type":"VEC2"
		},
		{
			"bufferView":42,
			"componentType":5123,
			"count":240,
			"type":"SCALAR"
		},
		{
			"bufferView":43,
			"componentType":5126,
			"count":136,
			"max":[
				1.1984643936157227,
				0.016641318798065186,
				0.8411931991577148
			],
			"min":[
				-0.5665559768676758,
				-0.4006373882293701,
				-0.86649489402771
			],
			"type":"VEC3"
		},
		{
			"bufferView":44,
			"componentType":5126,
			"count":136,
			"type":"VEC3"
		},
		{
			"bufferView":45,
			"componentType":5126,
			"count":136,
			"type":"VEC2"
		},
		{
			"bufferView":46,
			"componentType":5123,
			"count":204,
			"type":"SCALAR"
		},
		{
			"bufferView":47,
			"componentType":5126,
			"count":112,
			"max":[
				0.549261212348938,
				0.015375733375549316,
				1.1326508522033691
			],
			"min":[
				-0.5106955766677856,
				-0.4013262987136841,
				-0.5750370621681213
			],
			"type":"VEC3"
		},
		{
			"bufferView":48,
			"componentType":5126,
			"count":112,
			"type":"VEC3"
		},
		{
			"bufferView":49,
			"componentType":5126,
			"count":112,
			"type":"VEC2"
		},
		{
			"bufferView":50,
			"componentType":5123,
			"count":168,
			"type":"SCALAR"
		}
	],
	"bufferViews":[
		{
			"buffer":0,
			"byteLength":480,
			"byteOffset":0,
			"target":34962
		},
		{
			"buffer":0,
			"byteLength":480,
			"byteOffset":480,
			"target":34962
		},
		{
			"buffer":0,
			"byteLength":320,
			"byteOffset":960,
			"target":34962
		},
		{
			"buffer":0,
			"byteLength":120,
			"byteOffset":1280,
			"target":34963
		},
		{
			"buffer":0,
			"byteLength":1920,
			"byteOffset":1400,
			"target":34962
		},
		{
			"buffer":0,
			"byteLength":1920,
			"byteOffset":3320,
			"target":34962
		},
		{
			"buffer":0,
			"byteLength":1280,
			"byteOffset":5240,
			"target":34962
		},
		{
			"buffer":0,
			"byteLength":480,
			"byteOffset":6520,
			"target":34963
		},
		{
			"buffer":0,
			"byteLength":1920,
			"byteOffset":7000,
			"target":34962
		},
		{
			"buffer":0,
			"byteLength":1920,
			"byteOffset":8920,
			"target":34962
		},
		{
			"buffer":0,
			"byteLength":1280,
			"byteOffset":10840,
			"target":34962
		},
		{
			"buffer":0,
			"byteLength":480,
			"byteOffset":12120,
			"target":34963
		},
		{
			"buffer":0,
			"byteLength":1056,
			"byteOffset":12600,
			"target":34962
		},
		{
			"buffer":0,
			"byteLength":1056,
			"byteOffset":13656,
			"target":34962
		},
		{
			"buffer":0,
			"byteLength":704,
			"byteOffset":14712,
			"target":34962
		},
		{
			"buffer":0,
			"byteLength":264,
			"byteOffset":15416,
			"target":34963
		},
		{
			"buffer":0,
			"byteLength":1920,
			"byteOffset":15680,
			"target":34962
		},
		{
			"buffer":0,
			"byteLength":1920,
			"byteOffset":17600,
			"target":34962
		},
		{
			"buffer":0,
			"byteLength":1280,
			"byteOffset":19520,
			"target":34962
		},
		{
			"buffer":0,
			"byteLength":1920,
			"byteOffset":20800,
			"target":34962
		},
		{
			"buffer":0,
			"byteLength":1920,
			"byteOffset":22720,
			"target":34962
		},
		{
			"buffer":0,
			"byteLength":1280,
			"byteOffset":24640,
			"target":34962
		},
		{
			"buffer":0,
			"byteLength":480,
			"byteOffset":25920,
			"target":34963
		},
		{
			"buffer":0,
			"byteLength":1632,
			"byteOffset":26400,
			"target":34962
		},
		{
			"buffer":0,
			"byteLength":1632,
			"byteOffset":28032,
			"target":34962
		},
		{
			"buffer":0,
			"byteLength":1088,
			"byteOffset":29664,
			"target":34962
		},
		{
			"buffer":0,
			"byteLength":408,
			"byteOffset":30752,
			"target":34963
		},
		{
			"buffer":0,
			"byteLength":1344,
			"byteOffset":31160,
			"target":34962
		},
		{
			"buffer":0,
			"byteLength":1344,
			"byteOffset":32504,
			"target":34962
		},
		{
			"buffer":0,
			"byteLength":896,
			"byteOffset":33848,
			"target":34962
		},
		{
			"buffer":0,
			"byteLength":336,
			"byteOffset":34744,
			"target":34963
		},
		{
			"buffer":0,
			"byteLength":768,
			"byteOffset":35080,
			"target":34962
		},
		{
			"buffer":0,
			"byteLength":768,
			"byteOffset":35848,
			"target":34962
		},
		{
			"buffer":0,
			"byteLength":512,
			"byteOffset":36616,
			"target":34962
		},
		{
			"buffer":0,
			"byteLength":192,
			"byteOffset":37128,
			"target":34963
		},
		{
			"buffer":0,
			"byteLength":1344,
			"byteOffset":37320,
			"target":34962
		},
		{
			"buffer":0,
			"byteLength":1344,
			"byteOffset":38664,
			"target":34962
		},
		{
			"buffer":0,
			"byteLength":896,
			"byteOffset":40008,
			"target":34962
		},
		{
			"buffer":0,
			"byteLength":336,
			"byteOffset":40904,
			"target":34963
		},
		{
			"buffer":0,
			"byteLength":1920,
			"byteOffset":41240,
			"target":34962
		},
		{
			"buffer":0,
			"byteLength":1920,
			"byteOffset":43160,
			"target":34962
		},
		{
			"buffer":0,
			"byteLength":1280,
			"byteOffset":45080,
			"target":34962
		},
		{
			"buffer":0,
			"byteLength":480,
			"byteOffset":46360,
			"target":34963
		},
		{
			"buffer":0,
			"byteLength":1632,
			"byteOffset":46840,
			"target":34962
		},
		{
			"buffer":0,
			"byteLength":1632,
			"byteOffset":48472,
			"target":34962
		},
		{
			"buffer":0,
			"byteLength":1088,
			"byteOffset":50104,
			"target":34962
		},
		{
			"buffer":0,
			"byteLength":408,
			"byteOffset":51192,
			"target":34963
		},
		{
			"buffer":0,
			"byteLength":1344,
			"byteOffset":51600,
			"target":34962
		},
		{
			"buffer":0,
			"byteLength":1344,
			"byteOffset":52944,
			"target":34962
		},
		{
			"buffer":0,
			"byteLength":896,
			"byteOffset":54288,
			"target":34962
		},
		{
			"buffer":0,
			"byteLength":336,
			"byteOffset":55184,
			"target":34963
		}
	],
	"buffers":[
		{
			"byteLength":55520,
			"uri":"numPad.bin"
		}
	]
}
